<svg xmlns="http://www.w3.org/2000/svg" viewBox="0 0 500 500"><defs><style>.cls-1{fill:#a67c52;}.cls-2{fill:#c1272d;}.cls-3{fill:#fbb03b;}.cls-4{fill:#ed1c24;}.cls-5{fill:none;stroke:#000;stroke-miterlimit:10;}.cls-6{fill:#c69c6d;}.cls-7{fill:#009245;}.cls-8{fill:#fcee21;}</style></defs><title>Asset 2</title><g id="Layer_2" data-name="Layer 2"><g id="Layer_1-2" data-name="Layer 1"><circle class="cls-1" cx="250" cy="250" r="250"/><circle class="cls-2" cx="250" cy="250" r="225"/><path class="cls-2" d="M476,250a248.32,248.32,0,0,1-15.61,87.14c-.59,1.78-1.37,3.47-2.05,5.21l-2.11,5.19c-.66,1.75-1.52,3.41-2.29,5.12l-2.35,5.09c-.38.86-.79,1.7-1.23,2.53l-1.29,2.49-2.58,5c-1.79,3.3-3.74,6.51-5.61,9.77A232.11,232.11,0,0,1,413.8,413.8a224.2,224.2,0,0,1-34.09,30.32c-3.15,2.16-6.27,4.38-9.49,6.45l-4.89,3-2.45,1.5c-.81.51-1.64,1-2.48,1.45l-5.06,2.74c-1.7.89-3.35,1.88-5.09,2.68l-5.19,2.49c-1.74.82-3.44,1.71-5.24,2.41A228.62,228.62,0,0,1,250,485.68a231.33,231.33,0,0,1-46-4.46,226.71,226.71,0,0,1-44.14-13.65,233,233,0,0,1-75.66-51.79A225.46,225.46,0,0,1,19.53,250a240.5,240.5,0,0,1,5.62-44.72c.33-1.85.88-3.65,1.32-5.47l1.39-5.45c.42-1.83,1.05-3.6,1.59-5.39l1.65-5.37c.5-1.81,1.2-3.55,1.81-5.32L34.8,173c.59-1.77,1.37-3.48,2.07-5.21L39,162.6A245.72,245.72,0,0,1,161.77,37,224.32,224.32,0,0,1,250,16.66,215.27,215.27,0,0,1,413.61,86.39a230.49,230.49,0,0,1,27.11,36.17c1.87,3.27,3.82,6.47,5.61,9.77l2.58,5,1.29,2.49c.44.83.86,1.66,1.23,2.52l2.36,5.09c.76,1.71,1.63,3.36,2.29,5.11l2.1,5.19c.68,1.74,1.47,3.42,2.06,5.2A250.35,250.35,0,0,1,476,250Zm-2,0-.31-11c-.24-3.66-.54-7.31-.84-11s-1-7.27-1.46-10.89-1.33-7.21-2-10.8a202.61,202.61,0,0,0-13.8-41.5c-.69-1.69-1.56-3.29-2.36-4.93l-2.44-4.88c-.78-1.64-1.75-3.19-2.62-4.78l-2.68-4.74c-.43-.79-.91-1.57-1.41-2.33l-1.46-2.29-2.92-4.58c-2-3-4.16-5.93-6.22-8.9a221.38,221.38,0,0,0-28.86-32,238.81,238.81,0,0,0-71.87-45.12,235.69,235.69,0,0,0-125.25-14A218.17,218.17,0,0,0,166,47.2a207.1,207.1,0,0,0-120.79,118c-1.26,3.4-2.64,6.75-3.76,10.2l-1.65,5.18c-.53,1.73-1.15,3.43-1.57,5.2L36.87,191c-.43,1.76-1,3.49-1.28,5.28L34.5,201.6c-.34,1.78-.8,3.53-1,5.32a215.49,215.49,0,0,0-3,43.08A224.19,224.19,0,0,0,36,292.57c.32,1.76.86,3.47,1.29,5.2l1.36,5.17c.41,1.73,1,3.41,1.55,5.12l1.61,5.09c.48,1.71,1.16,3.36,1.76,5l1.83,5c.57,1.69,1.33,3.3,2,4.94L49.52,333a223.81,223.81,0,0,0,48.06,69.38,218.35,218.35,0,0,0,70.32,45.8,222.71,222.71,0,0,0,82.1,16.1A221.75,221.75,0,0,0,332.4,449a233.5,233.5,0,0,0,72-44.55,219.91,219.91,0,0,0,28.89-31.94c2.06-3,4.22-5.87,6.22-8.88l2.92-4.58,1.47-2.29c.5-.76,1-1.53,1.41-2.32l2.68-4.74c.87-1.59,1.84-3.14,2.61-4.78l2.45-4.87c.8-1.63,1.67-3.24,2.36-4.92A205.69,205.69,0,0,0,474,250Z"/><circle class="cls-3" cx="250" cy="250" r="200"/><path class="cls-3" d="M427.91,342.45A204.2,204.2,0,0,1,379,403.51a204.37,204.37,0,0,1-68.4,38.19A201.67,201.67,0,0,1,56.2,311.26,204.14,204.14,0,0,1,267.74,45.54,202,202,0,0,1,307.27,53,200.89,200.89,0,0,1,378,90.28a199.77,199.77,0,0,1,28.32,28.36,203,203,0,0,1,36.94,70.27A205.4,205.4,0,0,1,442.8,306,202.33,202.33,0,0,1,427.91,342.45ZM427,342a202.1,202.1,0,0,0,14.29-36.38,193,193,0,0,0,5.59-77.32A198.75,198.75,0,0,0,191.21,64a196.35,196.35,0,0,0-32.28,361.23,197,197,0,0,0,246.81-50.44A201.48,201.48,0,0,0,427,342Z"/><circle class="cls-4" cx="118" cy="200" r="25"/><circle class="cls-4" cx="307.82" cy="351" r="25"/><circle class="cls-4" cx="300" cy="113" r="25"/><circle class="cls-4" cx="219.33" cy="400" r="25"/><circle class="cls-4" cx="400" cy="304" r="25"/><circle class="cls-4" cx="143" cy="304" r="25"/><circle class="cls-4" cx="350" cy="221" r="25"/><circle class="cls-4" cx="200" cy="125" r="25"/><line class="cls-5" x1="250" x2="250" y2="500"/><line class="cls-5" x1="500" y1="250" y2="250"/><line class="cls-5" x1="73.22" y1="73.22" x2="426.78" y2="426.78"/><line class="cls-5" x1="250" y1="250" x2="73.22" y2="426.78"/><line class="cls-5" x1="426.78" y1="73.22" x2="250" y2="250"/><path class="cls-6" d="M145.87,230.71l13.92,11.48,14.34-17.39,10.44,8.61s14.34-17.39-3-31.74-31.74,3.05-31.74,3.05l10.44,8.6Z"/><path class="cls-6" d="M215.2,199.21,233,196.52l-3.35-22.29,13.37-2s-3.35-22.29-25.64-18.94-18.94,25.65-18.94,25.65l13.37-2Z"/><path class="cls-6" d="M286.8,143l-17.22,5.35,6.68,21.53-12.92,4s6.67,21.53,28.21,14.85,14.85-28.21,14.85-28.21l-12.92,4Z"/><path class="cls-6" d="M367.61,167.9l6,17,21.25-7.53,4.52,12.75s21.25-7.53,13.72-28.78-28.78-13.72-28.78-13.72l4.52,12.75Z"/><path class="cls-6" d="M346,311.72l13.82-11.59-14.48-17.27,10.36-8.69s-14.48-17.28-31.76-2.8-2.79,31.76-2.79,31.76l10.36-8.69Z"/><path class="cls-6" d="M196.4,350.57l16.21,7.91,9.88-20.27,12.16,5.93s9.88-20.26-10.39-30.14-30.14,10.38-30.14,10.38l12.16,5.93Z"/><path class="cls-6" d="M313.57,432.53,322.78,417,303.4,405.51l6.91-11.63s-19.38-11.52-30.89,7.87,7.86,30.89,7.86,30.89L294.19,421Z"/><path class="cls-6" d="M108.07,270l-16.92-6.25-7.81,21.15-12.69-4.69s-7.81,21.15,13.33,29,29-13.33,29-13.33l-12.69-4.69Z"/><rect class="cls-7" x="99.94" y="339.42" width="3" height="25" transform="matrix(0.82, -0.58, 0.58, 0.82, -184.64, 123.24)"/><rect class="cls-7" x="114.17" y="338.43" width="3" height="25" transform="translate(-253.12 327.95) rotate(-68.19)"/><rect class="cls-7" x="122.14" y="329.74" width="3" height="25" transform="translate(-198.02 512.37) rotate(-98.01)"/><rect class="cls-7" x="156.3" y="394.22" width="3" height="25" transform="translate(-237.05 592.25) rotate(-93.96)"/><rect class="cls-7" x="162.85" y="381.56" width="3" height="25" transform="translate(-52.28 761.98) rotate(-126.87)"/><rect class="cls-7" x="159.56" y="370.22" width="3" height="25" transform="translate(157.55 797.94) rotate(-156.69)"/><rect class="cls-7" x="279.66" y="291.44" width="3" height="25" transform="translate(547.62 -12.96) rotate(82.83)"/><rect class="cls-7" x="273.83" y="304.45" width="3" height="25" transform="translate(340.56 -97.79) rotate(49.92)"/><rect class="cls-7" x="277.74" y="315.58" width="3" height="25" transform="translate(129.76 -75.98) rotate(20.1)"/><rect class="cls-7" x="122.23" y="130.23" width="3" height="25" transform="translate(305.67 91.93) rotate(115.32)"/><rect class="cls-7" x="110.32" y="138.07" width="3" height="25" transform="translate(246.3 19.84) rotate(82.41)"/><rect class="cls-7" x="107.64" y="149.57" width="3" height="25" transform="translate(171.57 -23.08) rotate(52.59)"/><rect class="cls-7" x="210.26" y="59.43" width="3" height="25" transform="translate(28.68 -56.51) rotate(16.29)"/><rect class="cls-7" x="219.88" y="69.96" width="3" height="25" transform="translate(-14.34 66.76) rotate(-16.62)"/><rect class="cls-7" x="231.65" y="70.81" width="3" height="25" transform="translate(12.11 194.84) rotate(-46.44)"/><rect class="cls-7" x="357.58" y="254.28" width="3" height="25" transform="translate(-40.98 66.62) rotate(-10.03)"/><rect class="cls-7" x="370.86" y="259.46" width="3" height="25" transform="translate(-85.5 326.54) rotate(-42.94)"/><rect class="cls-7" x="381.78" y="254.99" width="3" height="25" transform="matrix(0.3, -0.96, 0.96, 0.3, 14.21, 554.28)"/><rect class="cls-7" x="399.57" y="216.5" width="3" height="25" transform="translate(105.37 583.78) rotate(-79.92)"/><rect class="cls-7" x="408.99" y="205.81" width="3" height="25" transform="translate(368.52 681.35) rotate(-112.83)"/><rect class="cls-7" x="408.56" y="194.02" width="3" height="25" transform="translate(610.71 619.48) rotate(-142.64)"/><rect class="cls-7" x="339.5" y="107.35" width="3" height="25" transform="translate(77.42 367.18) rotate(-62.54)"/><rect class="cls-7" x="351.69" y="99.96" width="3" height="25" transform="matrix(-0.1, -1, 1, -0.1, 274.8, 474.74)"/><rect class="cls-7" x="354.8" y="88.57" width="3" height="25" transform="translate(479.52 450.33) rotate(-125.27)"/><polygon class="cls-8" points="183.88 288.09 199.5 280.37 185.21 256.88 173.89 262.49 183.88 288.09"/><polygon class="cls-8" points="62.21 234.67 76.47 244.68 90.25 220.9 79.91 213.64 62.21 234.67"/><polygon class="cls-8" points="390.3 361.6 398.38 346.16 373.01 335.59 367.15 346.78 390.3 361.6"/><polygon class="cls-8" points="189.06 379.52 201.44 367.26 180.47 349.49 171.5 358.38 189.06 379.52"/><polygon class="cls-8" points="261.56 389.25 278.98 389.07 276.3 361.71 263.66 361.85 261.56 389.25"/><polygon class="cls-8" points="287.71 224.89 297.44 239.34 318.82 222.06 311.76 211.58 287.71 224.89"/><polygon class="cls-8" points="148.51 95.12 144.74 112.13 171.99 115.72 174.72 103.39 148.51 95.12"/><polygon class="cls-8" points="282.7 85.08 289.25 68.94 262.98 60.87 258.23 72.57 282.7 85.08"/></g></g></svg>
